<mxfile host="app.diagrams.net" modified="2023-12-21T09:43:05.132Z" agent="Mozilla/5.0 (Windows NT 10.0; Win64; x64) AppleWebKit/537.36 (KHTML, like Gecko) Chrome/120.0.0.0 Safari/537.36" etag="0_roJb0G3akRAgYvvIPj" version="22.1.11" type="google">
  <diagram name="第 1 页" id="heXCqQj83ESaIwzp2Vau">
    <mxGraphModel grid="0" page="1" gridSize="10" guides="1" tooltips="1" connect="1" arrows="1" fold="1" pageScale="1" pageWidth="4681" pageHeight="3300" math="0" shadow="0">
      <root>
        <mxCell id="0" />
        <mxCell id="1" parent="0" />
        <mxCell id="GZqLBAQdy4hPKwWfZQCl-154" value="2.角色(參與者):" style="rounded=0;whiteSpace=wrap;html=1;align=left;" vertex="1" parent="1">
          <mxGeometry x="400" y="738" width="220" height="30" as="geometry" />
        </mxCell>
        <mxCell id="GZqLBAQdy4hPKwWfZQCl-155" value="顧客" style="rounded=0;whiteSpace=wrap;html=1;align=left;" vertex="1" parent="1">
          <mxGeometry x="620" y="738" width="230" height="30" as="geometry" />
        </mxCell>
        <mxCell id="GZqLBAQdy4hPKwWfZQCl-158" value="1.目標" style="rounded=0;whiteSpace=wrap;html=1;align=left;" vertex="1" parent="1">
          <mxGeometry x="400" y="708" width="90" height="30" as="geometry" />
        </mxCell>
        <mxCell id="GZqLBAQdy4hPKwWfZQCl-159" value="本用例允續顧客登錄系統後而連覽商品購置商品" style="rounded=0;whiteSpace=wrap;html=1;align=left;" vertex="1" parent="1">
          <mxGeometry x="490" y="708" width="360" height="30" as="geometry" />
        </mxCell>
        <mxCell id="GZqLBAQdy4hPKwWfZQCl-160" value="3.事件流:" style="rounded=0;whiteSpace=wrap;html=1;align=left;" vertex="1" parent="1">
          <mxGeometry x="400" y="768" width="450" height="30" as="geometry" />
        </mxCell>
        <mxCell id="GZqLBAQdy4hPKwWfZQCl-161" value="" style="rounded=0;whiteSpace=wrap;html=1;" vertex="1" parent="1">
          <mxGeometry x="400" y="798" width="10" height="30" as="geometry" />
        </mxCell>
        <mxCell id="GZqLBAQdy4hPKwWfZQCl-162" value="" style="rounded=0;whiteSpace=wrap;html=1;" vertex="1" parent="1">
          <mxGeometry x="400" y="828" width="10" height="30" as="geometry" />
        </mxCell>
        <mxCell id="GZqLBAQdy4hPKwWfZQCl-163" value="" style="rounded=0;whiteSpace=wrap;html=1;" vertex="1" parent="1">
          <mxGeometry x="400" y="858" width="10" height="30" as="geometry" />
        </mxCell>
        <mxCell id="GZqLBAQdy4hPKwWfZQCl-164" value="" style="rounded=0;whiteSpace=wrap;html=1;" vertex="1" parent="1">
          <mxGeometry x="400" y="888" width="10" height="30" as="geometry" />
        </mxCell>
        <mxCell id="GZqLBAQdy4hPKwWfZQCl-165" value="" style="rounded=0;whiteSpace=wrap;html=1;" vertex="1" parent="1">
          <mxGeometry x="400" y="918" width="10" height="30" as="geometry" />
        </mxCell>
        <mxCell id="GZqLBAQdy4hPKwWfZQCl-166" value="" style="rounded=0;whiteSpace=wrap;html=1;" vertex="1" parent="1">
          <mxGeometry x="400" y="948" width="10" height="40" as="geometry" />
        </mxCell>
        <mxCell id="GZqLBAQdy4hPKwWfZQCl-167" value="3.1常規流程:" style="rounded=0;whiteSpace=wrap;html=1;align=left;" vertex="1" parent="1">
          <mxGeometry x="410" y="798" width="440" height="30" as="geometry" />
        </mxCell>
        <mxCell id="GZqLBAQdy4hPKwWfZQCl-168" value="" style="rounded=0;whiteSpace=wrap;html=1;" vertex="1" parent="1">
          <mxGeometry x="410" y="828" width="20" height="30" as="geometry" />
        </mxCell>
        <mxCell id="GZqLBAQdy4hPKwWfZQCl-169" value="" style="rounded=0;whiteSpace=wrap;html=1;" vertex="1" parent="1">
          <mxGeometry x="410" y="858" width="20" height="30" as="geometry" />
        </mxCell>
        <mxCell id="GZqLBAQdy4hPKwWfZQCl-170" value="" style="rounded=0;whiteSpace=wrap;html=1;" vertex="1" parent="1">
          <mxGeometry x="410" y="888" width="20" height="30" as="geometry" />
        </mxCell>
        <mxCell id="GZqLBAQdy4hPKwWfZQCl-171" value="3.2備選流程" style="rounded=0;whiteSpace=wrap;html=1;align=left;" vertex="1" parent="1">
          <mxGeometry x="410" y="918" width="440" height="30" as="geometry" />
        </mxCell>
        <mxCell id="GZqLBAQdy4hPKwWfZQCl-172" value="" style="rounded=0;whiteSpace=wrap;html=1;" vertex="1" parent="1">
          <mxGeometry x="410" y="948" width="20" height="40" as="geometry" />
        </mxCell>
        <mxCell id="GZqLBAQdy4hPKwWfZQCl-173" value="(1)顧客註冊帳號,密碼；" style="rounded=0;whiteSpace=wrap;html=1;align=left;" vertex="1" parent="1">
          <mxGeometry x="430" y="828" width="420" height="30" as="geometry" />
        </mxCell>
        <mxCell id="GZqLBAQdy4hPKwWfZQCl-174" value="(2)顧客對樣購買的商品進行瀏覽隊要購買的商品加入購物車,用例結束" style="rounded=0;whiteSpace=wrap;html=1;align=left;" vertex="1" parent="1">
          <mxGeometry x="430" y="858" width="420" height="30" as="geometry" />
        </mxCell>
        <mxCell id="GZqLBAQdy4hPKwWfZQCl-175" value="(3)用戶點擊&quot;退出&quot;,用例結束" style="rounded=0;whiteSpace=wrap;html=1;align=left;" vertex="1" parent="1">
          <mxGeometry x="430" y="888" width="420" height="30" as="geometry" />
        </mxCell>
        <mxCell id="GZqLBAQdy4hPKwWfZQCl-177" value="4.前置條件:" style="rounded=0;whiteSpace=wrap;html=1;align=left;" vertex="1" parent="1">
          <mxGeometry x="400" y="988" width="90" height="30" as="geometry" />
        </mxCell>
        <mxCell id="GZqLBAQdy4hPKwWfZQCl-178" value="5.後置條件:" style="rounded=0;whiteSpace=wrap;html=1;align=left;" vertex="1" parent="1">
          <mxGeometry x="400" y="1018" width="90" height="30" as="geometry" />
        </mxCell>
        <mxCell id="GZqLBAQdy4hPKwWfZQCl-180" value="用例開始前,進入前台系統" style="rounded=0;whiteSpace=wrap;html=1;align=left;" vertex="1" parent="1">
          <mxGeometry x="490" y="988" width="360" height="30" as="geometry" />
        </mxCell>
        <mxCell id="GZqLBAQdy4hPKwWfZQCl-181" value="將購買的商品加入購物車" style="rounded=0;whiteSpace=wrap;html=1;align=left;" vertex="1" parent="1">
          <mxGeometry x="490" y="1018" width="360" height="30" as="geometry" />
        </mxCell>
        <mxCell id="GZqLBAQdy4hPKwWfZQCl-182" value="&lt;font style=&quot;font-size: 11px;&quot;&gt;(1)顧客註冊失敗&lt;br&gt;常規流程中,弱點擊&quot;註冊&quot;後,由於系統及其他原因無法更新數據,將提示&quot;註冊失敗&quot;&lt;/font&gt;" style="rounded=0;whiteSpace=wrap;html=1;align=left;" vertex="1" parent="1">
          <mxGeometry x="430" y="948" width="420" height="40" as="geometry" />
        </mxCell>
        <mxCell id="GZqLBAQdy4hPKwWfZQCl-187" value="&lt;font style=&quot;font-size: 11px;&quot;&gt;1.登入用例用戶輸入自己註冊完成的帳號,密碼,登錄成功後進入台介面瀏覽商品選購商品如下圖3-1所示:&lt;/font&gt;" style="rounded=0;whiteSpace=wrap;html=1;strokeColor=none;" vertex="1" parent="1">
          <mxGeometry x="400" y="632" width="504" height="36" as="geometry" />
        </mxCell>
        <mxCell id="GZqLBAQdy4hPKwWfZQCl-185" value="&lt;b&gt;3.1.2系統用例說明&lt;/b&gt;" style="rounded=0;whiteSpace=wrap;html=1;strokeColor=none;" vertex="1" parent="1">
          <mxGeometry x="400" y="596" width="103" height="36" as="geometry" />
        </mxCell>
        <mxCell id="GZqLBAQdy4hPKwWfZQCl-189" value="表3-1顧客成功登陸用例說明表" style="rounded=0;whiteSpace=wrap;html=1;strokeColor=none;" vertex="1" parent="1">
          <mxGeometry x="541.5" y="673" width="167" height="31" as="geometry" />
        </mxCell>
      </root>
    </mxGraphModel>
  </diagram>
</mxfile>
